# xmcd CD database file
#
# Track frame offsets:
#	150
#	6219
#	21079
#	35967
#	46717
#	59167
#	75866
#	105452
#	116850
#	141713
#	162222
#	178120
#	189330
#	199711
#	211297
#	215868
#
# Disc length: 3027 seconds
#
# Revision: 0
# Processed by: cddbd v1.5.2PL0 Copyright (c) Steve Scherf et al.
# Submitted via: CDex 1.70beta2
#
DISCID=ea0bd110
DTITLE=Ani Choying Drolma - Cho
DYEAR=1997
DGENRE=New Age
TTITLE0=Ngakso
TTITLE1=Kyema Mimin
TTITLE2=Kyamdro Semkye
TTITLE3=Ngami Troma Part 1
TTITLE4=Ngami Troma Part 2
TTITLE5=Cho Chendrenmon 
TTITLE6=Kangyi Tengi
TTITLE7=Ney Ogmin Choying Podrang
TTITLE8=Shengshik Pema Jungney
TTITLE9=Om Pana Phem
TTITLE10=Leymon Tendrel 1
TTITLE11=Leymon Tendrel 2
TTITLE12=Nubchok Dechen
TTITLE13=Senge Wangchuk
TTITLE14=Dechen Monlam
TTITLE15=Tal
EXTD=YEAR: 1997
EXTT0=
EXTT1=
EXTT2=
EXTT3=
EXTT4=
EXTT5=
EXTT6=
EXTT7=
EXTT8=
EXTT9=
EXTT10=
EXTT11=
EXTT12=
EXTT13=
EXTT14=
EXTT15=
PLAYORDER=
